<svg width="24" height="24" viewBox="0 0 24 24" fill="none" xmlns="http://www.w3.org/2000/svg">
<path d="M19.875 9.28125C20.0312 9.125 20.0312 8.90625 19.875 8.75L16.75 5.625C16.5938 5.46875 16.3438 5.46875 16.2188 5.625L15.5938 6.25C15.4375 6.375 15.4375 6.625 15.5938 6.78125L17.1875 8.25H4.375C4.15625 8.25 4 8.4375 4 8.625V9.375C4 9.59375 4.15625 9.75 4.375 9.75H17.1875L15.5938 11.25C15.4375 11.4062 15.4375 11.6562 15.5938 11.7812L16.2188 12.4062C16.3438 12.5625 16.5938 12.5625 16.75 12.4062L19.875 9.28125ZM4.09375 15.2812L7.21875 18.4062C7.375 18.5625 7.625 18.5625 7.75 18.4062L8.375 17.7812C8.53125 17.6562 8.53125 17.4062 8.375 17.25L6.78125 15.75H19.625C19.8125 15.75 20 15.5938 20 15.375V14.625C20 14.4375 19.8125 14.25 19.625 14.25H6.78125L8.375 12.7812C8.53125 12.625 8.53125 12.375 8.375 12.25L7.75 11.625C7.625 11.4688 7.375 11.4688 7.21875 11.625L4.09375 14.75C3.9375 14.9062 3.9375 15.125 4.09375 15.2812Z" fill="#323232"/>
</svg>
