<svg width="24" height="24" viewBox="0 0 24 24" fill="none" xmlns="http://www.w3.org/2000/svg">
<path d="M14.1875 7.625L15.9062 5.09375C15.9688 5 15.9688 4.875 15.9688 4.78125C15.9688 4.34375 15.6562 4.03125 15.25 4H8.75C8.3125 4 8 4.34375 8 4.75C8 4.875 8 5 8.0625 5.09375L9.8125 7.625C3.6875 11.375 4 16.2812 4 16.875C4 18.625 5.53125 20 7.40625 20H16.5625C18.4375 20 19.9688 18.625 19.9688 16.875C19.9688 16.2812 20.25 11.3438 14.1875 7.625ZM13.8125 5.5L12.625 7.25H11.3438L10.1562 5.5H13.8125ZM18.4688 16.875C18.4688 17.7812 17.625 18.5 16.5625 18.5H7.40625C6.34375 18.5 5.5 17.7812 5.5 16.875C5.46875 14.3438 6.5 11.4062 10.8438 8.75H13.1562C17.4375 11.4062 18.5 14.3438 18.4688 16.875ZM12.9062 13.7188L11.375 13.2812C11.1875 13.2188 11.0938 13.0312 11.0938 12.8438C11.0938 12.5938 11.25 12.4062 11.4688 12.4062H12.4375C12.5938 12.4062 12.75 12.4375 12.875 12.5312C12.9062 12.5625 12.9688 12.5625 13.0312 12.5625C13.0938 12.5625 13.1562 12.5312 13.2188 12.5L13.625 12.125C13.6562 12.0625 13.6875 12 13.6875 11.9375C13.6875 11.8438 13.6562 11.75 13.5938 11.7188C13.2812 11.5 12.9375 11.3438 12.5312 11.3438V10.7812C12.5312 10.625 12.4062 10.5312 12.25 10.5312V10.5H11.7188C11.5625 10.5 11.4375 10.625 11.4375 10.7812V11.3438C10.625 11.3438 10 12.0312 10 12.8438C10 13.5312 10.4375 14.125 11.0625 14.3125L12.5938 14.75C12.7812 14.8125 12.875 15 12.875 15.1875C12.875 15.4375 12.7188 15.625 12.5 15.625H11.5312C11.375 15.625 11.2188 15.5938 11.0938 15.5C11.0625 15.4688 11 15.4688 10.9375 15.4688C10.875 15.4688 10.8125 15.5 10.75 15.5312L10.3438 15.9062C10.3125 15.9688 10.2812 16.0312 10.2812 16.0938C10.2812 16.1875 10.3125 16.2812 10.375 16.3125C10.6875 16.5312 11.0312 16.6875 11.4375 16.6875V17.25C11.4375 17.4062 11.5625 17.5 11.7188 17.5H12.25C12.4062 17.5 12.5312 17.4062 12.5312 17.25V16.6875C13.3438 16.6875 13.9688 16 13.9688 15.1875C14 14.5 13.5312 13.9062 12.9062 13.7188Z" fill="#323232"/>
</svg>
